<?xml version="1.0" standalone="no"?>
<!DOCTYPE svg PUBLIC "-//W3C//DTD SVG 20010904//EN"
 "http://www.w3.org/TR/2001/REC-SVG-20010904/DTD/svg10.dtd">
<svg version="1.0" xmlns="http://www.w3.org/2000/svg"
 width="300.000000pt" height="299.000000pt" viewBox="0 0 300.000000 299.000000"
 preserveAspectRatio="xMidYMid meet">
<metadata>
Created by potrace 1.10, written by Peter Selinger 2001-2011
</metadata>
<g transform="translate(0.000000,299.000000) scale(0.100000,-0.100000)"
fill="#000000" stroke="none">
<path d="M1445 2508 c-164 -21 -380 -114 -492 -213 -135 -118 -177 -167 -219
-255 -38 -77 -64 -177 -43 -164 5 3 9 13 9 23 0 10 14 45 31 77 17 32 41 79
54 104 12 25 45 65 72 90 191 175 221 194 393 256 139 50 361 78 436 54 138
-42 248 -96 290 -142 51 -54 52 -74 4 -83 -23 -4 -24 -1 -10 25 11 20 -11 47
-29 36 -5 -4 -16 2 -23 12 -14 20 -48 36 -48 23 0 -5 7 -11 15 -15 8 -3 15 -9
15 -14 0 -5 -7 -9 -15 -9 -8 0 -15 5 -15 10 0 5 -7 4 -15 -3 -20 -16 -19 -34
1 -26 8 3 13 2 10 -3 -3 -5 -19 -11 -36 -13 -23 -4 -30 -1 -28 11 2 10 -6 17
-19 19 -24 4 -30 16 -13 27 12 7 -25 45 -45 45 -10 0 -15 -10 -15 -29 0 -36
17 -50 23 -19 3 17 5 14 6 -9 1 -25 6 -33 20 -33 31 0 41 -23 47 -117 l7 -91
-32 -7 c-22 -5 -31 -11 -27 -21 3 -8 1 -14 -4 -14 -6 0 -10 4 -10 9 0 12 -37
2 -50 -14 -8 -10 -8 -15 1 -21 7 -4 15 -2 17 4 2 7 16 12 31 12 14 0 35 6 46
14 11 7 32 16 48 20 15 3 27 11 27 17 0 6 -7 9 -14 6 -11 -5 -14 1 -11 21 2
15 7 36 11 46 5 14 4 17 -4 12 -19 -11 -14 19 7 45 10 13 18 28 18 34 0 5 9
14 19 20 10 5 24 17 31 25 15 19 36 1 27 -24 -5 -14 -9 -15 -15 -5 -6 11 -9
10 -15 -4 -3 -9 -11 -17 -16 -17 -12 0 -37 -30 -37 -45 -1 -5 7 0 17 13 11 14
32 24 57 28 70 8 76 10 85 23 9 16 30 6 30 -15 0 -12 14 -14 93 -7 112 10 249
9 300 -1 37 -7 107 -58 107 -78 0 -7 -15 -8 -40 -4 -33 5 -38 4 -34 -9 4 -8
16 -15 28 -15 32 0 39 -11 19 -32 -9 -10 -11 -18 -5 -18 15 0 29 27 37 71 6
32 3 39 -25 63 -59 49 -94 58 -237 58 -73 0 -151 -3 -174 -7 -47 -8 -68 7
-114 79 -32 51 -103 93 -239 140 -104 36 -183 42 -321 24z m382 -258 c-3 -14
0 -20 10 -20 13 0 13 -3 3 -15 -18 -22 -26 -18 -24 13 1 36 3 42 10 42 4 0 4
-9 1 -20z"/>
<path d="M1339 2409 c-10 -6 -7 -9 12 -9 43 0 89 -12 83 -21 -3 -5 1 -10 8
-11 75 -8 96 -19 114 -56 11 -25 19 -32 22 -22 5 16 21 30 36 30 4 0 6 -7 2
-15 -3 -9 0 -15 9 -15 8 0 15 -7 15 -15 0 -16 15 -21 23 -7 2 4 2 1 0 -7 -2
-7 1 -19 6 -25 16 -19 17 -79 2 -84 -10 -3 -12 0 -8 12 4 9 2 16 -4 16 -14 0
-52 -21 -60 -32 -7 -11 -38 -13 -60 -4 -26 11 -18 -29 11 -52 23 -18 23 -20 7
-36 -23 -23 -22 -40 1 -27 11 6 24 6 33 0 10 -6 10 -9 2 -9 -16 0 -17 -26 -3
-35 6 -4 9 -2 8 5 -2 6 15 19 37 29 l40 19 -38 1 c-26 1 -40 6 -44 19 -4 9
-10 20 -15 23 -15 10 32 53 60 54 45 1 68 25 69 70 0 22 -2 42 -6 45 -19 14
-58 76 -54 87 6 17 -16 26 -32 13 -12 -10 -15 -9 -15 9 0 12 5 19 10 16 6 -3
10 -2 10 4 0 14 -49 46 -57 37 -3 -3 -2 -6 4 -6 6 0 13 -9 16 -20 5 -21 -17
-29 -28 -9 -4 6 -28 9 -54 8 -25 -1 -57 3 -69 10 -32 17 -75 22 -93 10z"/>
<path d="M1630 2385 c0 -15 27 -28 41 -19 18 11 8 29 -16 30 -14 1 -25 -4 -25
-11z"/>
<path d="M1292 2313 c-34 -21 -60 -43 -58 -49 2 -6 -11 -25 -30 -42 -19 -17
-34 -36 -34 -44 0 -7 18 7 40 30 22 24 38 48 37 54 -1 6 5 12 13 13 22 4 150
63 150 69 0 18 -63 1 -118 -31z"/>
<path d="M1159 2234 c-20 -22 -26 -32 -14 -26 25 13 72 62 59 62 -6 0 -26 -16
-45 -36z"/>
<path d="M926 2136 c-64 -62 -116 -118 -116 -124 0 -6 -16 -27 -35 -48 -19
-20 -35 -42 -35 -48 0 -6 7 -3 14 7 16 21 26 22 26 2 0 -8 5 -15 10 -15 7 0 7
-6 0 -20 -12 -23 2 -27 20 -5 7 8 10 25 6 40 -8 30 33 116 65 139 13 9 18 19
14 27 -5 7 -4 10 1 6 5 -3 32 18 59 46 140 145 123 141 -29 -7z"/>
<path d="M1110 2220 c-14 -11 -34 -27 -44 -35 -11 -8 -17 -17 -15 -20 3 -2 25
13 50 35 46 41 52 54 9 20z"/>
<path d="M2346 2209 c2 -4 -14 -5 -36 -2 -26 4 -40 2 -40 -6 0 -6 -15 -11 -35
-11 -19 0 -45 -5 -59 -11 -31 -14 -43 -39 -15 -32 10 3 19 9 19 14 0 4 21 8
48 8 94 0 116 2 105 9 -18 12 97 13 119 1 11 -6 27 -8 36 -4 15 6 15 8 -3 18
-22 12 -146 27 -139 16z"/>
<path d="M2017 2174 c9 -4 10 -11 3 -23 -6 -13 -17 -16 -39 -13 -16 2 -37 -1
-48 -7 -17 -10 -17 -10 2 -12 17 -1 16 -2 -4 -8 -14 -4 -26 -12 -28 -18 -3 -8
18 -6 63 7 74 22 81 26 86 55 2 15 -3 21 -22 22 -14 1 -19 0 -13 -3z"/>
<path d="M2310 2154 c-36 -8 -102 -21 -148 -29 -46 -7 -89 -18 -95 -23 -19
-14 -187 -70 -252 -83 -33 -7 -72 -18 -87 -26 -16 -7 -39 -18 -53 -23 -25 -10
-26 -9 -11 12 31 44 15 51 -27 13 -15 -14 -27 -31 -27 -37 0 -7 7 -3 15 8 14
18 14 18 15 -5 0 -18 4 -22 18 -16 20 9 291 86 407 116 44 11 123 34 175 51
52 17 120 37 150 44 46 10 49 12 20 12 -19 0 -64 -6 -100 -14z"/>
<path d="M1295 2096 c-66 -66 -102 -87 -115 -67 -4 7 -11 2 -19 -15 -12 -26
-24 -28 -74 -8 -10 3 -20 -3 -27 -17 -11 -19 -10 -21 4 -16 32 12 15 -20 -21
-40 -36 -20 -43 -16 -32 17 6 17 15 30 20 30 5 0 9 9 9 21 0 11 4 18 9 15 5
-3 11 1 15 9 3 8 15 15 26 15 11 0 20 5 20 10 0 6 -7 10 -15 10 -8 0 -15 5
-15 10 0 20 -17 10 -29 -17 -7 -16 -19 -35 -27 -43 -27 -29 -84 -122 -79 -130
3 -4 -2 -13 -10 -20 -8 -7 -15 -20 -15 -29 1 -12 6 -9 23 10 12 15 32 32 45
38 12 7 20 17 16 23 -4 6 -3 8 4 4 6 -3 14 -1 17 5 4 6 23 8 49 5 30 -4 36 -3
21 4 -16 7 -11 9 22 8 23 -1 46 1 49 5 4 4 0 7 -10 7 -25 0 -12 15 36 40 25
13 50 19 65 15 13 -3 23 -1 23 5 0 6 20 -1 45 -16 31 -18 55 -25 75 -22 16 3
32 0 34 -6 2 -6 5 -5 5 3 1 10 4 11 14 3 8 -7 18 -7 27 -2 13 8 12 10 -2 10
-13 0 -8 9 17 33 32 31 34 36 24 68 -18 63 -52 89 -119 89 -37 0 -47 -6 -105
-64z m170 17 c34 -16 52 -52 19 -39 -13 5 -15 1 -10 -19 5 -21 3 -25 -15 -25
-16 0 -20 4 -14 17 5 15 3 14 -13 -2 -10 -11 -17 -28 -14 -37 6 -23 -17 -23
-33 -1 -11 15 -15 15 -29 4 -9 -7 -13 -18 -9 -25 6 -10 -13 3 -42 28 -12 11
-8 63 6 72 5 3 9 -13 9 -35 0 -22 5 -43 10 -46 6 -3 10 0 10 8 0 8 11 18 25
21 14 4 25 14 25 22 0 11 6 15 20 11 11 -3 22 -1 25 4 8 12 -17 49 -32 49 -17
0 -17 -17 0 -23 6 -3 2 -6 -10 -6 -16 -1 -23 -7 -23 -20 0 -10 -7 -21 -15 -25
-11 -4 -15 2 -15 22 0 31 9 47 30 55 28 10 59 7 95 -10z"/>
<path d="M2428 2092 c-6 -7 -16 -11 -22 -9 -12 5 -38 -18 -30 -26 3 -2 -6 -2
-19 0 -26 5 -107 -31 -107 -47 0 -5 -9 -14 -21 -20 -18 -10 -19 -9 -11 7 9 15
7 19 -9 20 -10 1 -19 -2 -19 -8 0 -5 -3 -8 -7 -7 -17 4 -83 -13 -89 -24 -5 -7
1 -9 20 -4 15 4 26 2 26 -4 0 -5 -13 -10 -30 -10 -16 0 -30 5 -30 11 0 5 -10
3 -22 -5 -12 -9 -30 -16 -39 -16 -8 0 -38 -11 -65 -25 -27 -14 -59 -25 -71
-25 -12 0 -25 -4 -28 -10 -3 -5 -11 -10 -16 -10 -6 0 -8 4 -5 9 3 5 -1 12 -10
15 -26 10 -28 7 -10 -13 16 -18 16 -20 -14 -41 -17 -12 -37 -19 -45 -16 -9 3
-19 -3 -26 -16 -6 -11 -14 -16 -18 -11 -3 6 -14 3 -25 -8 -11 -11 -15 -19 -9
-19 5 0 13 3 17 8 4 4 11 7 14 7 42 4 101 18 98 24 -3 4 6 14 19 21 13 7 22
18 18 23 -3 6 -1 7 5 3 6 -3 14 -1 17 5 4 5 23 9 44 7 21 -2 35 1 34 8 -1 6
12 9 30 8 18 -2 24 -1 14 2 -18 6 -18 6 0 20 20 15 108 20 99 5 -3 -5 16 2 42
15 27 13 71 27 98 30 28 3 68 17 94 33 25 16 73 41 108 57 34 16 62 34 62 40
0 16 -49 12 -62 -4z"/>
<path d="M891 1969 c-22 -49 -23 -51 -5 -64 22 -17 44 -19 44 -5 0 5 -8 13
-17 19 -15 8 -16 15 -6 53 6 23 10 44 9 45 -1 2 -13 -20 -25 -48z"/>
<path d="M1935 2011 c-11 -5 -23 -7 -26 -5 -4 2 -9 -3 -13 -11 -3 -8 -4 -15
-2 -15 9 0 76 31 76 35 0 7 -11 5 -35 -4z"/>
<path d="M1760 1961 c0 -4 9 -12 20 -19 15 -9 20 -9 20 0 0 6 6 3 14 -7 12
-17 15 -17 29 -4 13 14 10 17 -34 26 -27 5 -49 7 -49 4z"/>
<path d="M1672 1940 c-12 -5 -29 -7 -36 -4 -9 3 -28 -7 -45 -25 -17 -17 -35
-31 -41 -31 -5 0 -10 -4 -10 -9 0 -5 -13 -14 -29 -20 -15 -7 -44 -29 -62 -49
-19 -20 -23 -27 -9 -16 14 12 44 32 68 44 23 13 42 27 42 31 0 4 8 9 18 13 9
3 24 10 32 15 25 15 104 46 112 44 5 -2 8 2 8 7 0 12 -17 12 -48 0z"/>
<path d="M2010 1896 c0 -13 -3 -31 -6 -40 -3 -9 -2 -16 4 -16 12 0 21 69 10
76 -4 3 -8 -6 -8 -20z"/>
<path d="M2164 1886 c-4 -10 -13 -15 -21 -12 -8 3 -11 1 -8 -4 3 -6 1 -10 -5
-10 -6 0 -8 -4 -5 -10 3 -5 1 -10 -4 -10 -6 0 -11 -8 -11 -17 0 -14 -5 -11
-18 10 -10 15 -22 24 -25 20 -11 -10 -8 -25 3 -18 15 9 37 -46 39 -100 1 -27
7 -55 13 -63 9 -10 8 -16 -2 -22 -11 -7 -12 -13 -1 -36 9 -21 15 -24 24 -15 9
9 9 16 -1 31 -7 11 -8 20 -4 20 5 0 7 19 5 43 -2 23 -4 54 -3 69 0 15 -5 30
-10 33 -7 4 -4 13 9 24 21 19 45 70 37 79 -3 3 -8 -3 -12 -12z"/>
<path d="M1936 1825 c-13 -17 -22 -22 -26 -14 -5 7 -23 -9 -49 -44 -42 -57
-58 -91 -20 -43 11 14 25 23 31 20 7 -4 8 -2 4 5 -9 13 14 46 23 34 3 -4 23 9
44 30 21 20 32 37 25 37 -7 0 -22 -11 -32 -25z"/>
<path d="M1575 1804 c-27 -18 -45 -34 -39 -34 6 0 22 9 36 19 13 11 37 23 51
26 15 4 24 11 21 16 -8 13 -15 11 -69 -27z"/>
<path d="M814 1805 c-9 -34 -2 -46 18 -31 11 8 15 20 11 34 -7 29 -21 28 -29
-3z"/>
<path d="M880 1805 c-12 -15 -5 -39 9 -30 12 7 21 45 11 45 -4 0 -13 -7 -20
-15z"/>
<path d="M1084 1805 c-4 -8 -14 -15 -24 -15 -11 0 -22 -4 -25 -10 -10 -16 28
-12 53 6 23 16 29 34 12 34 -6 0 -13 -7 -16 -15z"/>
<path d="M1950 1719 c0 -40 2 -70 4 -68 10 9 14 129 5 134 -5 4 -9 -25 -9 -66z"/>
<path d="M765 1756 c-23 -23 -89 -153 -185 -366 -49 -108 -84 -156 -201 -278
-228 -238 -379 -428 -379 -479 0 -22 9 -14 57 53 102 144 209 268 386 447 76
78 95 104 142 201 50 103 123 257 149 316 6 14 24 47 40 73 33 55 29 71 -9 33z"/>
<path d="M1583 1754 c-17 -13 -17 -14 2 -7 20 6 20 6 1 -15 -11 -12 -24 -22
-30 -22 -21 0 -70 -46 -58 -54 7 -4 12 -3 12 3 0 5 17 19 38 32 20 12 42 27
47 34 6 6 23 19 39 27 l29 15 -31 1 c-16 0 -38 -6 -49 -14z"/>
<path d="M844 1738 c-4 -6 -2 -14 4 -16 7 -2 10 -7 8 -11 -3 -4 5 -6 17 -5 12
1 26 3 31 3 12 1 -30 41 -43 41 -5 0 -13 -5 -17 -12z"/>
<path d="M1265 1714 c-16 -8 -22 -12 -13 -10 10 3 20 1 23 -4 9 -14 38 -5 41
13 3 21 -11 21 -51 1z"/>
<path d="M1872 1673 c-12 -39 -7 -57 8 -33 8 13 10 13 10 1 0 -8 3 -12 6 -9 3
4 1 15 -5 27 -7 11 -7 22 -2 25 5 4 12 0 14 -6 4 -8 6 -9 6 -2 1 6 -5 17 -12
23 -11 8 -16 3 -25 -26z"/>
<path d="M880 1679 c-14 -25 -6 -51 14 -43 24 9 30 -17 7 -32 -12 -8 -21 -20
-21 -26 0 -7 4 -7 14 1 20 17 67 10 61 -9 -8 -24 25 -39 55 -23 14 7 19 13 10
13 -11 1 -10 4 5 17 20 16 20 16 0 8 -11 -4 -29 -10 -40 -12 -16 -5 -18 -3 -7
8 18 19 15 38 -5 33 -13 -4 -25 8 -42 41 -27 50 -35 54 -51 24z"/>
<path d="M1753 1664 c-18 -19 -29 -34 -25 -34 13 1 64 50 60 59 -2 5 -17 -7
-35 -25z"/>
<path d="M1077 1643 c3 -7 9 -10 14 -7 5 3 9 1 9 -5 0 -6 8 -7 17 -4 11 4 13
8 5 11 -7 2 -10 7 -7 12 3 4 -6 7 -19 6 -14 0 -22 -6 -19 -13z"/>
<path d="M2006 1611 c3 -29 12 -68 19 -85 8 -17 12 -21 9 -9 -3 12 -12 50 -20
85 l-14 63 6 -54z"/>
<path d="M1295 1641 c3 -5 1 -12 -5 -16 -5 -3 -10 -14 -10 -23 1 -14 4 -13 20
7 19 23 19 41 -1 41 -6 0 -8 -4 -4 -9z"/>
<path d="M1150 1632 c0 -5 -12 -13 -27 -18 -25 -9 -24 -10 17 -8 25 0 56 6 70
13 l25 11 -27 -5 c-16 -3 -28 -1 -28 5 0 5 -7 10 -15 10 -8 0 -15 -4 -15 -8z"/>
<path d="M1432 1608 c-44 -27 -34 -35 14 -10 20 10 33 22 28 25 -6 3 -24 -4
-42 -15z"/>
<path d="M1250 1594 c-7 -8 -23 -14 -34 -12 -31 4 -49 -10 -34 -26 21 -22 71
-5 79 27 8 31 6 33 -11 11z"/>
<path d="M2099 1588 c-1 -7 0 -21 1 -32 3 -32 -11 -91 -19 -78 -4 7 -7 -13 -7
-44 1 -40 5 -59 15 -62 11 -4 12 2 7 23 -4 17 -3 24 4 20 7 -4 7 2 0 19 -7 18
-6 25 2 23 13 -2 30 66 26 107 -3 30 -27 49 -29 24z"/>
<path d="M1261 1554 c-23 -30 -27 -44 -10 -44 9 0 9 -4 0 -14 -6 -7 -13 -28
-15 -46 -2 -18 -11 -37 -20 -42 -9 -5 -16 -14 -16 -21 0 -8 4 -6 11 3 8 12 9
8 5 -15 l-5 -30 12 26 c7 14 29 47 50 72 40 49 49 71 18 42 -19 -17 -20 -16
-18 6 2 13 10 39 20 57 15 27 15 32 3 32 -8 0 -24 -12 -35 -26z"/>
<path d="M1007 1534 c-3 -4 1 -13 9 -21 8 -8 12 -19 9 -24 -4 -5 2 -6 12 -3
17 5 17 5 -1 -10 -17 -14 -17 -15 10 -12 16 2 32 4 37 5 4 0 7 6 7 12 0 5 -4
8 -9 5 -5 -3 -11 3 -14 14 -3 11 -13 20 -24 20 -15 0 -16 2 -3 10 12 8 11 10
-6 10 -11 0 -23 -3 -27 -6z"/>
<path d="M1907 1453 c8 -63 13 -67 13 -10 0 25 -4 49 -10 52 -6 4 -7 -11 -3
-42z"/>
<path d="M1101 1443 c0 -13 -5 -23 -10 -23 -5 0 -14 -14 -20 -30 l-10 -30 44
30 c43 29 54 41 38 39 -21 -3 -32 3 -36 19 -4 13 -5 11 -6 -5z"/>
<path d="M1284 1343 l-11 -38 -12 30 c-12 29 -13 29 -27 11 -10 -14 -11 -22
-3 -27 6 -4 9 -11 5 -17 -3 -6 -1 -12 4 -14 6 -2 13 -20 15 -41 2 -21 6 -41
10 -45 10 -10 28 28 29 60 1 26 0 27 -13 11 -12 -16 -12 -16 -6 7 4 14 14 35
21 48 9 14 12 28 6 38 -6 11 -11 6 -18 -23z"/>
<path d="M1387 1342 c-9 -21 -31 -53 -51 -70 -20 -17 -31 -34 -26 -37 6 -4 8
-10 6 -14 -3 -3 4 -7 14 -7 19 0 60 75 75 139 10 39 0 33 -18 -11z"/>
<path d="M2046 1364 c-3 -9 -6 -34 -6 -57 0 -27 -3 -37 -9 -29 -5 8 -10 -17
-14 -64 -3 -42 -10 -80 -16 -83 -11 -7 -35 -140 -26 -149 2 -3 -1 -12 -8 -20
-9 -12 -9 -16 1 -19 6 -3 10 -8 7 -13 -3 -5 0 -21 6 -37 6 -16 8 -50 4 -78 -5
-45 -10 -53 -40 -69 -19 -10 -36 -24 -39 -31 -7 -18 4 -55 16 -55 6 0 7 7 4
16 -4 12 -1 14 14 9 11 -4 20 -2 20 4 0 6 -4 11 -10 11 -5 0 -10 7 -10 15 0 8
6 12 13 9 8 -3 25 4 38 15 22 18 24 26 23 104 -1 47 -7 101 -14 121 -11 35 -5
75 20 126 16 33 32 122 26 145 -5 19 -2 25 10 25 10 0 14 5 11 15 -4 8 -3 16
1 19 4 2 7 17 6 33 -1 15 -3 34 -3 41 -1 17 -18 15 -25 -4z"/>
<path d="M1145 1340 c-19 -37 -19 -46 0 -30 12 10 15 10 15 -3 0 -9 -4 -19
-10 -22 -5 -3 -10 -15 -10 -26 0 -11 -7 -22 -15 -25 -8 -4 -15 -11 -15 -16 0
-6 8 -4 17 3 15 12 16 12 10 -5 -5 -11 4 -6 23 14 30 32 40 75 19 82 -6 2 -11
16 -11 31 0 34 -4 34 -23 -3z"/>
<path d="M1435 1294 c-9 -14 -14 -32 -11 -40 3 -8 1 -12 -4 -9 -5 3 -7 0 -5
-7 3 -8 -1 -22 -9 -33 -9 -11 -16 -15 -16 -8 0 7 -7 10 -15 7 -8 -4 -12 -10
-9 -15 3 -5 10 -7 15 -4 5 4 9 1 9 -5 0 -6 5 -8 10 -5 6 3 10 0 10 -8 0 -7 11
-19 24 -25 23 -10 24 -9 23 24 -1 34 -1 34 -14 12 -13 -21 -13 -20 -8 17 3 22
5 50 5 63 0 13 5 32 10 43 15 28 5 23 -15 -7z"/>
<path d="M760 1270 c-21 -18 -28 -30 -19 -30 8 0 28 14 44 30 37 38 21 38 -25
0z"/>
<path d="M1191 1227 l-33 -52 39 38 c22 21 40 44 40 52 0 25 -11 17 -46 -38z"/>
<path d="M1495 1208 c-8 -33 -1 -198 8 -198 4 0 7 11 7 25 0 14 5 25 10 25 6
0 10 7 10 16 0 8 -4 13 -9 10 -13 -8 -19 23 -16 88 2 60 -1 70 -10 34z"/>
<path d="M756 1165 c-16 -13 -31 -31 -32 -40 -1 -9 -11 -23 -21 -31 -10 -7
-13 -14 -7 -14 6 0 30 25 52 55 23 30 40 55 39 55 -1 -1 -15 -12 -31 -25z"/>
<path d="M1247 1134 c-16 -24 -27 -50 -24 -57 2 -6 8 0 12 16 4 15 10 27 14
27 8 0 34 51 29 55 -2 2 -16 -17 -31 -41z"/>
<path d="M1326 1156 c6 -15 4 -17 -6 -11 -9 5 -11 4 -6 -4 5 -7 -5 -23 -23
-40 -29 -27 -44 -60 -21 -46 10 6 14 -11 11 -50 -2 -19 -1 -19 10 -1 6 10 12
36 13 56 1 21 10 50 20 65 13 20 15 30 6 39 -8 8 -9 6 -4 -8z"/>
<path d="M995 1129 c-55 -31 -56 -37 -2 -14 19 8 37 12 41 10 3 -3 4 -2 1 2
-3 3 0 12 6 20 15 17 14 16 -46 -18z"/>
<path d="M1190 1119 c-16 -13 -19 -19 -8 -15 12 3 7 -10 -18 -44 -20 -28 -31
-50 -25 -50 6 0 11 4 11 10 0 5 14 25 31 45 18 20 29 38 25 42 -3 3 -1 12 5
20 16 19 8 16 -21 -8z"/>
<path d="M1802 1104 c-1 -17 -4 -47 -7 -65 l-5 -34 11 34 c5 18 8 47 6 65 l-4
31 -1 -31z"/>
<path d="M580 1080 c-25 -16 -42 -30 -37 -30 9 0 47 21 71 40 14 11 20 12 23
3 6 -18 28 -16 43 2 14 17 0 21 -17 4 -8 -8 -13 -8 -17 0 -10 15 -15 14 -66
-19z"/>
<path d="M1601 1058 c-1 -55 -16 -83 -31 -58 -5 8 -9 6 -12 -8 -4 -16 0 -19
22 -18 25 1 29 5 32 36 2 19 0 51 -3 70 -5 29 -7 26 -8 -22z"/>
<path d="M1635 1043 c-3 -21 -7 -48 -9 -60 -2 -14 5 -25 21 -34 12 -7 23 -16
23 -21 0 -14 39 -48 45 -39 2 5 7 26 11 47 3 22 8 42 11 47 2 4 -1 7 -6 7 -6
0 -11 -12 -12 -27 0 -25 -1 -26 -10 -8 -6 15 -7 11 -3 -14 6 -33 6 -34 -11
-18 -10 10 -15 26 -12 37 6 25 -1 25 -20 3 -13 -16 -14 -11 -10 44 6 69 -8 96
-18 36z"/>
<path d="M1319 1049 c-8 -15 -8 -19 0 -15 6 4 11 3 11 -3 0 -5 -4 -13 -10 -16
-5 -3 -10 -11 -10 -16 0 -5 12 2 26 16 14 14 29 24 32 20 3 -3 -4 -12 -17 -21
-14 -10 -20 -22 -16 -34 3 -10 1 -21 -5 -25 -5 -3 -10 -11 -10 -18 0 -6 6 -3
13 7 13 18 46 13 48 -8 1 -14 17 24 18 43 1 12 -2 12 -11 3 -21 -21 -27 -13
-17 20 7 25 5 36 -8 50 -21 23 -30 23 -44 -3z"/>
<path d="M1916 1048 c-11 -55 -14 -96 -7 -107 4 -7 9 12 10 41 1 29 4 61 7 71
3 9 3 17 0 17 -3 0 -8 -10 -10 -22z"/>
<path d="M485 1046 c-17 -7 -37 -21 -45 -31 -13 -17 -13 -18 0 -10 8 4 23 15
32 23 9 7 21 11 27 8 5 -4 13 -1 16 5 11 17 2 18 -30 5z"/>
<path d="M527 1003 c-20 -20 -37 -43 -37 -50 0 -8 -5 -11 -10 -8 -6 4 -18 1
-27 -7 -14 -11 -16 -11 -8 2 6 11 3 10 -12 -2 -11 -10 -27 -18 -36 -18 -9 0
-17 -4 -17 -10 0 -5 5 -10 11 -10 5 0 7 -4 4 -10 -10 -17 7 -11 20 7 7 9 18
18 26 19 8 2 23 5 34 8 11 2 23 5 27 5 4 1 5 7 2 14 -2 7 12 32 32 55 44 52
40 54 -9 5z"/>
<path d="M602 976 c-29 -12 -49 -25 -46 -29 11 -11 36 -8 29 3 -3 6 3 11 14
11 32 2 34 3 61 22 33 23 7 20 -58 -7z"/>
<path d="M985 970 c-10 -11 -20 -18 -23 -16 -5 5 -18 -7 -42 -39 -17 -22 59
35 80 60 18 22 6 18 -15 -5z"/>
<path d="M1758 973 c-6 -83 3 -103 16 -31 4 21 2 39 -4 43 -5 3 -11 -2 -12
-12z"/>
<path d="M1816 956 c-9 -19 -16 -42 -16 -53 0 -10 -7 -27 -15 -37 -10 -13 -15
-15 -15 -6 0 7 -3 10 -7 7 -3 -4 3 -16 14 -26 20 -19 21 -19 21 7 0 14 4 28
10 30 6 2 8 10 5 19 -3 8 -1 18 4 22 11 6 28 71 20 71 -3 0 -12 -15 -21 -34z"/>
<path d="M756 953 c-3 -4 -25 -10 -49 -14 l-42 -6 45 -1 c25 -1 53 5 64 13 15
12 16 15 5 15 -9 0 -19 -3 -23 -7z"/>
<path d="M1931 933 c0 -17 3 -34 9 -38 5 -3 7 -13 4 -23 -5 -14 -4 -15 5 -2
13 18 14 50 2 50 -5 0 -12 10 -14 23 -3 16 -5 14 -6 -10z"/>
<path d="M575 913 c-11 -3 -25 -10 -30 -16 -15 -17 -58 -41 -50 -28 8 14 9 14
-49 -7 -57 -20 -77 -43 -60 -69 10 -15 32 -18 27 -3 -1 3 -5 14 -9 24 -5 13
-4 17 4 12 6 -4 26 1 44 10 18 10 45 18 60 17 17 0 25 4 21 10 -4 7 1 8 13 3
10 -4 15 -4 11 0 -9 10 49 45 65 39 7 -3 27 -1 43 4 27 8 25 9 -20 9 -27 0
-59 -2 -70 -5z"/>
<path d="M1453 873 c-7 -3 -13 -12 -13 -21 0 -14 2 -15 9 -3 8 12 12 13 25 1
9 -7 14 -15 12 -17 -6 -6 32 -43 43 -43 20 0 22 22 4 39 -31 29 -67 49 -80 44z"/>
<path d="M720 860 l-35 -7 35 -1 c19 0 44 3 55 8 20 9 20 9 0 8 -11 0 -36 -4
-55 -8z"/>
<path d="M2054 763 c10 -125 -17 -280 -69 -397 -21 -47 -125 -348 -125 -361 0
-3 7 -5 15 -5 8 0 19 17 25 43 23 86 54 175 106 308 29 75 58 166 65 203 14
80 8 233 -10 261 -10 17 -11 8 -7 -52z"/>
<path d="M1566 794 c-3 -9 -6 -25 -6 -37 0 -18 2 -19 10 -7 8 13 10 12 10 -2
0 -10 -6 -18 -13 -18 -8 0 -14 -6 -14 -14 0 -8 6 -12 14 -9 7 3 13 9 13 15 0
5 3 7 8 5 4 -3 7 5 7 18 0 13 -3 21 -7 19 -13 -8 -20 17 -8 31 7 9 8 15 2 15
-5 0 -13 -7 -16 -16z"/>
<path d="M350 779 c0 -4 -7 -6 -15 -3 -17 7 -43 -16 -37 -34 2 -6 -3 -12 -11
-12 -9 0 -17 -4 -19 -9 -1 -5 -10 -11 -18 -13 -19 -4 -30 -18 -30 -40 0 -14 5
-15 28 -8 16 4 42 15 58 24 29 17 20 17 -36 0 -12 -4 -20 -2 -20 5 0 6 5 11
11 11 7 0 22 11 35 25 13 14 33 25 46 25 28 0 55 16 45 26 -11 11 -37 14 -37
3z"/>
<path d="M159 704 c-17 -36 -29 -70 -27 -76 2 -5 17 25 35 66 17 42 29 76 26
76 -2 0 -18 -30 -34 -66z"/>
<path d="M1635 760 c-13 -21 6 -70 26 -70 14 0 19 -8 20 -32 2 -33 2 -33 6 -4
3 16 11 35 19 43 16 17 10 33 -13 33 -9 0 -13 -6 -10 -14 4 -10 0 -14 -12 -13
-15 1 -17 6 -10 29 9 34 2 37 -12 6 -9 -22 -9 -21 -6 5 4 29 2 33 -8 17z"/>
<path d="M1830 718 c0 -10 -4 -18 -10 -18 -17 0 -11 -26 11 -46 l21 -19 -7 34
c-7 32 -6 34 19 29 18 -4 26 -1 26 9 0 8 -5 11 -11 7 -6 -3 -15 0 -20 7 -7 12
-9 11 -9 -1 0 -13 -1 -13 -10 0 -8 13 -10 12 -10 -2z"/>
<path d="M1766 704 c-8 -22 -8 -23 12 -20 21 3 29 36 9 36 -8 0 -18 -7 -21
-16z"/>
<path d="M1724 698 c-13 -21 -13 -58 1 -58 7 0 15 15 17 35 4 35 -4 46 -18 23z"/>
<path d="M171 592 c-6 -9 -11 -13 -11 -8 0 5 -9 -1 -20 -14 -22 -26 -26 -55
-8 -66 7 -4 8 -3 4 4 -4 7 -2 12 3 12 6 0 11 9 11 20 0 12 12 26 30 35 34 18
36 21 15 29 -8 3 -19 -2 -24 -12z"/>
<path d="M290 600 c12 -9 10 -11 -11 -6 -24 5 -54 -9 -87 -41 -7 -7 -18 -13
-23 -13 -5 0 -9 -5 -9 -10 0 -10 39 7 50 22 3 4 11 3 18 -1 10 -6 3 -13 -22
-25 -37 -17 -50 -31 -18 -19 27 11 147 93 135 93 -6 0 -20 3 -30 6 -15 5 -16
4 -3 -6z"/>
<path d="M494 453 c-69 -71 -124 -154 -124 -188 0 -27 14 -8 34 46 15 42 70
109 80 98 3 -3 -13 -28 -35 -57 -25 -33 -32 -49 -20 -43 19 11 84 116 85 139
1 7 6 16 11 20 17 12 49 52 41 52 -3 0 -36 -30 -72 -67z"/>
<path d="M1385 485 c-16 -13 -25 -24 -20 -25 6 0 24 11 40 25 17 13 26 24 20
25 -5 0 -23 -11 -40 -25z"/>
<path d="M244 442 c-17 -21 -39 -50 -49 -67 -10 -16 -26 -39 -35 -50 -28 -34
-104 -181 -86 -166 10 8 24 28 33 45 29 57 92 144 135 186 31 31 35 38 16 26
-31 -18 -39 -5 -10 16 23 17 47 48 36 47 -5 0 -23 -17 -40 -37z"/>
<path d="M419 475 c-1 -3 -2 -9 -3 -13 0 -5 -14 -21 -31 -36 -20 -18 -23 -24
-9 -17 25 12 47 38 50 57 2 13 -4 21 -7 9z"/>
<path d="M130 455 c-18 -21 -4 -45 24 -45 31 0 56 37 31 45 -8 3 -21 7 -29 9
-8 3 -20 -2 -26 -9z"/>
<path d="M56 385 c-14 -13 -26 -29 -26 -35 0 -16 21 -12 37 8 42 53 35 70 -11
27z"/>
<path d="M390 375 c-19 -19 -31 -35 -27 -35 3 0 -4 -10 -16 -23 -12 -13 -26
-21 -31 -19 -5 3 -6 0 -2 -6 4 -6 -10 -21 -34 -34 -49 -28 -52 -46 -5 -39 6 1
-3 -9 -20 -23 -21 -17 -32 -21 -38 -13 -5 8 -7 7 -5 -4 2 -9 -34 -48 -86 -95
-58 -52 -84 -80 -73 -82 16 -3 126 65 128 79 1 5 2 14 3 20 0 6 25 32 55 59
45 40 52 51 42 64 -9 11 -9 16 0 22 8 5 9 3 4 -6 -4 -7 12 1 37 18 39 27 62
62 57 88 0 3 12 19 27 35 15 16 26 29 23 29 -3 0 -20 -16 -39 -35z"/>
<path d="M122 335 c-21 -44 -52 -60 -67 -34 -8 12 -55 -52 -54 -73 0 -7 4 -3
9 10 11 26 23 28 40 7 10 -13 10 -19 -3 -33 -8 -9 -19 -29 -22 -44 -4 -16 -11
-28 -16 -28 -5 0 -9 -12 -9 -27 l0 -28 14 25 c8 14 28 54 45 88 17 35 43 82
59 105 32 48 45 77 34 77 -5 0 -18 -20 -30 -45z"/>
<path d="M255 310 c-27 -16 -54 -31 -60 -33 -5 -3 -8 -7 -5 -10 4 -5 101 50
118 67 11 12 -5 5 -53 -24z"/>
<path d="M372 228 c-16 -17 -22 -19 -22 -8 -1 13 -2 13 -13 -1 -7 -8 -20 -18
-29 -22 -10 -3 -18 -16 -18 -27 0 -17 3 -19 19 -8 11 7 22 21 25 33 4 12 9 16
13 9 5 -7 16 -1 31 18 28 34 25 37 -6 6z"/>
<path d="M237 142 c-25 -28 -20 -34 13 -17 17 9 30 20 30 25 0 16 -26 11 -43
-8z"/>
</g>
</svg>
